<?xml version="1.0" encoding="utf-8"?>
<!-- Generator: Adobe Illustrator 22.1.0, SVG Export Plug-In . SVG Version: 6.00 Build 0)  -->
<svg version="1.1" id="Camada_1" xmlns="http://www.w3.org/2000/svg" xmlns:xlink="http://www.w3.org/1999/xlink" x="0px" y="0px"
	 viewBox="0 0 811.4 345.2" style="enable-background:new 0 0 811.4 345.2;" xml:space="preserve">
<style type="text/css">
	.st0{fill:#FFFFFF;}
</style>
<g>
	<g>
		<path class="st0" d="M159.1,220.2c0.6,22.2-7.4,41.5-23.9,57.6C118.7,294,99.4,301.7,77.1,301c-21.5-0.5-39.7-8.7-54.7-24.4
			C7.5,260.9,0,242.2,0,220.5c0-22.6,8-42,24.1-58.2s35.2-23.9,57.4-23.2c22.7,0.9,41.7,10,56.8,27.4V0h13.3h61.7v20.5H159
			L159.1,220.2z M138.5,218.6c-0.4-16.3-6.1-30.3-17.3-41.9c-11.1-11.6-24.7-17.4-40.6-17.4c-16.3-0.2-30.3,5.6-42,17.3
			S21,202.4,20.8,219c-0.2,16.3,5.3,30.6,16.3,42.9s24.6,18.7,40.5,19.2c17,0.9,31.6-5,43.6-17.7S139,235.6,138.5,218.6z"/>
		<path class="st0" d="M340.2,205.5l-134.1,35.9c5.6,14.6,15.3,25.3,29.1,32.1c13.8,6.8,28.3,8.1,43.4,3.8
			c23.5-6.7,37.4-22.1,41.8-46.3l21.2-5.7c-1.3,17.6-7.3,32.9-18,45.8c-10.7,13-24.2,21.8-40.4,26.3c-20.3,5.8-40.4,3.2-60.2-7.9
			s-32.7-27.1-38.7-48.2c-6.5-22.2-3.8-43.6,8.2-64.1s29.3-33.2,51.8-37.9c20.2-4.1,39.7-0.5,58.5,10.7
			c18.2,11.2,29.7,26.1,34.7,44.6L340.2,205.5z M315.7,192.4c-6.5-13.2-16.1-22.8-28.7-28.7s-26.1-7-40.5-3.3s-25.8,11.3-34.2,22.9
			c-8.4,11.6-12.1,24.9-11.1,39.8L315.7,192.4z"/>
		<path class="st0" d="M518,202.1l-132.5,41.6c6.2,14.3,16.4,24.6,30.4,30.8c14.1,6.2,28.6,6.8,43.5,1.9c23.2-7.7,36.4-23.7,39.8-48
			l21-6.6c-0.5,17.6-5.9,33.1-16.1,46.6c-10.2,13.4-23.3,22.8-39.3,28c-20.1,6.7-40.2,4.9-60.5-5.3c-20.3-10.2-33.9-25.7-40.8-46.5
			c-7.5-21.9-5.6-43.4,5.5-64.4s27.8-34.4,50.1-40.1c20-5,39.7-2.2,58.9,8.2c18.6,10.4,30.8,24.8,36.6,43.1L518,202.1z M492.9,190.1
			c-7.1-12.9-17.1-22.1-29.9-27.4c-12.9-5.3-26.4-5.9-40.6-1.6c-14.2,4.3-25.2,12.4-33.1,24.3c-7.9,12-11,25.4-9.4,40.2L492.9,190.1
			z"/>
		<g>
			<path class="st0" d="M558.6,300.5c0,14.3-2.6,24.3-7.7,30.1c-6.1,7.1-14.5,11.6-25.3,13.6l-5.8,1v-20.6
				c6.5-0.5,11.3-3.3,14.4-8.4c2-3.3,3-9.8,3-19.5V141.8h21.4L558.6,300.5L558.6,300.5z M558.6,124.2h-21.4V87.6h21.4V124.2z"/>
		</g>
		<path class="st0" d="M769.1,219.1v1.1v76.5h-20.6v-24.1c-16.8,19.2-37.3,28.4-61.6,27.7c-21.2-0.7-39.4-9-54.3-24.7
			c-15-15.7-22.4-34.4-22.4-56.1c0-22.6,8-42,24.1-58.2s35.3-23.8,57.8-22.9c21.7,0.7,40.1,9,55.3,24.8
			C762.6,178.9,769.8,197.6,769.1,219.1z M748.4,217.6c-0.4-16.3-6.2-30.3-17.4-41.9c-11.2-11.6-24.7-17.4-40.5-17.4
			c-16.5,0-30.5,5.8-42.1,17.4c-11.6,11.6-17.5,25.6-17.7,42.1c-0.4,16.3,5,30.6,16.2,42.8c11.1,12.2,24.6,18.7,40.4,19.4
			c17,0.7,31.6-5.2,43.6-17.8C743,249.7,748.8,234.8,748.4,217.6z"/>
		<path class="st0" d="M811.4,123.6h-20.6V87.5h20.6V123.6z M811.4,296.7h-20.6V142.1h20.6V296.7z"/>
		<circle class="st0" cx="588.1" cy="282.2" r="18.9"/>
		<path class="st0" d="M197.4,0.5l-58.8-0.1l20.5,20.2l38.2-1c-2.9,14.7-10,26.5-21.1,35.5c-5.3,4.3-11,7.5-17.2,9.7l-0.5,22
			c12.9-3.4,24.7-10.3,35.3-20.7c16.9-16.7,25.2-36.6,24.7-59.8c0-2.1-0.1-4.2-0.3-6.2L197.4,0.5z"/>
	</g>
	<g>
		<path class="st0" d="M159.1,220.2c0.6,22.2-7.4,41.5-23.9,57.6C118.7,294,99.4,301.7,77.1,301c-21.5-0.5-39.7-8.7-54.7-24.4
			C7.5,260.9,0,242.2,0,220.5c0-22.6,8-42,24.1-58.2s35.2-23.9,57.4-23.2c22.7,0.9,41.7,10,56.8,27.4V0h13.3h61.7v20.5H159
			L159.1,220.2z M138.5,218.6c-0.4-16.3-6.1-30.3-17.3-41.9c-11.1-11.6-24.7-17.4-40.6-17.4c-16.3-0.2-30.3,5.6-42,17.3
			S21,202.4,20.8,219c-0.2,16.3,5.3,30.6,16.3,42.9s24.6,18.7,40.5,19.2c17,0.9,31.6-5,43.6-17.7S139,235.6,138.5,218.6z"/>
		<path class="st0" d="M340.2,205.5l-134.1,35.9c5.6,14.6,15.3,25.3,29.1,32.1c13.8,6.8,28.3,8.1,43.4,3.8
			c23.5-6.7,37.4-22.1,41.8-46.3l21.2-5.7c-1.3,17.6-7.3,32.9-18,45.8c-10.7,13-24.2,21.8-40.4,26.3c-20.3,5.8-40.4,3.2-60.2-7.9
			s-32.7-27.1-38.7-48.2c-6.5-22.2-3.8-43.6,8.2-64.1s29.3-33.2,51.8-37.9c20.2-4.1,39.7-0.5,58.5,10.7
			c18.2,11.2,29.7,26.1,34.7,44.6L340.2,205.5z M315.7,192.4c-6.5-13.2-16.1-22.8-28.7-28.7s-26.1-7-40.5-3.3s-25.8,11.3-34.2,22.9
			c-8.4,11.6-12.1,24.9-11.1,39.8L315.7,192.4z"/>
		<path class="st0" d="M518,202.1l-132.5,41.6c6.2,14.3,16.4,24.6,30.4,30.8c14.1,6.2,28.6,6.8,43.5,1.9c23.2-7.7,36.4-23.7,39.8-48
			l21-6.6c-0.5,17.6-5.9,33.1-16.1,46.6c-10.2,13.4-23.3,22.8-39.3,28c-20.1,6.7-40.2,4.9-60.5-5.3c-20.3-10.2-33.9-25.7-40.8-46.5
			c-7.5-21.9-5.6-43.4,5.5-64.4s27.8-34.4,50.1-40.1c20-5,39.7-2.2,58.9,8.2c18.6,10.4,30.8,24.8,36.6,43.1L518,202.1z M492.9,190.1
			c-7.1-12.9-17.1-22.1-29.9-27.4c-12.9-5.3-26.4-5.9-40.6-1.6c-14.2,4.3-25.2,12.4-33.1,24.3c-7.9,12-11,25.4-9.4,40.2L492.9,190.1
			z"/>
		<path class="st0" d="M769.1,219.1v1.1v76.5h-20.6v-24.1c-16.8,19.2-37.3,28.4-61.6,27.7c-21.2-0.7-39.4-9-54.3-24.7
			c-15-15.7-22.4-34.4-22.4-56.1c0-22.6,8-42,24.1-58.2s35.3-23.8,57.8-22.9c21.7,0.7,40.1,9,55.3,24.8
			C762.6,178.9,769.8,197.6,769.1,219.1z M748.4,217.6c-0.4-16.3-6.2-30.3-17.4-41.9c-11.2-11.6-24.7-17.4-40.5-17.4
			c-16.5,0-30.5,5.8-42.1,17.4c-11.6,11.6-17.5,25.6-17.7,42.1c-0.4,16.3,5,30.6,16.2,42.8c11.1,12.2,24.6,18.7,40.4,19.4
			c17,0.7,31.6-5.2,43.6-17.8C743,249.7,748.8,234.8,748.4,217.6z"/>
		<path class="st0" d="M811.4,123.6h-20.6V87.5h20.6V123.6z M811.4,296.7h-20.6V142.1h20.6V296.7z"/>
		<circle class="st0" cx="588.1" cy="282.2" r="18.9"/>
		<path class="st0" d="M197.4,0.5l-58.8-0.1l20.5,20.2l38.2-1c-2.9,14.7-10,26.5-21.1,35.5c-5.3,4.3-11,7.5-17.2,9.7l-0.5,22
			c12.9-3.4,24.7-10.3,35.3-20.7c16.9-16.7,25.2-36.6,24.7-59.8c0-2.1-0.1-4.2-0.3-6.2L197.4,0.5z"/>
	</g>
</g>
</svg>
